<svg width="48" height="48" viewBox="0 0 48 48" fill="none" xmlns="http://www.w3.org/2000/svg">
  <circle cx="24" cy="24" r="22" fill="#FF5722" />
  <path d="M24 4C12.95 4 4 12.95 4 24C4 35.05 12.95 44 24 44C35.05 44 44 35.05 44 24C44 12.95 35.05 4 24 4ZM24 40C15.18 40 8 32.82 8 24C8 15.18 15.18 8 24 8C32.82 8 40 15.18 40 24C40 32.82 32.82 40 24 40Z" fill="#FFFFFF"/>
  <path d="M24 12C17.37 12 12 17.37 12 24C12 30.63 17.37 36 24 36C30.63 36 36 30.63 36 24C36 17.37 30.63 12 24 12ZM24 30C20.69 30 18 27.31 18 24C18 20.69 20.69 18 24 18C27.31 18 30 20.69 30 24C30 27.31 27.31 30 24 30Z" fill="#FFFFFF"/>
  <text x="24" y="25" font-family="Arial, sans-serif" font-size="6" font-weight="bold" text-anchor="middle" fill="#FFFFFF">FIBA 3x3</text>
</svg>
